<svg width="64" height="64" viewBox="0 0 64 64" fill="none" xmlns="http://www.w3.org/2000/svg">
<path d="M13.0001 48.9999V46H30.5001V23.7654C29.5949 23.5295 28.8033 23.082 28.1251 22.4231C27.4468 21.7641 26.9834 20.9564 26.7347 20H20.1154L26 34.2115C25.9615 35.7115 25.3103 36.9871 24.0462 38.0384C22.7821 39.0897 21.2667 39.6153 19.5001 39.6153C17.7334 39.6153 16.218 39.0897 14.9539 38.0384C13.6898 36.9871 13.0385 35.7115 13.0001 34.2115L18.8847 20H15.0001V17H26.7347C27.0449 15.859 27.6814 14.9071 28.6443 14.1443C29.6071 13.3814 30.7256 13 32 13C33.2744 13 34.393 13.3814 35.3558 14.1443C36.3186 14.9071 36.9551 15.859 37.2654 17H49V20H45.1153L51 34.2115C50.9615 35.7115 50.3102 36.9871 49.0461 38.0384C47.782 39.0897 46.2666 39.6153 44.5 39.6153C42.7333 39.6153 41.218 39.0897 39.9539 38.0384C38.6898 36.9871 38.0385 35.7115 38 34.2115L43.8846 20H37.2654C37.0167 20.9564 36.5532 21.7641 35.875 22.4231C35.1968 23.082 34.4051 23.5295 33.5 23.7654V46H51V48.9999H13.0001ZM40.6154 34.1154H48.3846L44.5 24.7422L40.6154 34.1154ZM15.6154 34.1154H23.3847L19.5001 24.7422L15.6154 34.1154ZM32 21C32.6949 21 33.2853 20.7571 33.7712 20.2712C34.2571 19.7853 34.5001 19.1949 34.5001 18.5C34.5001 17.8051 34.2571 17.2147 33.7712 16.7288C33.2853 16.2429 32.6949 16 32 16C31.3051 16 30.7147 16.2429 30.2288 16.7288C29.7429 17.2147 29.5 17.8051 29.5 18.5C29.5 19.1949 29.7429 19.7853 30.2288 20.2712C30.7147 20.7571 31.3051 21 32 21Z" fill="#4D4DFF"/>
</svg>
