<svg width="64" height="64" viewBox="0 0 64 64" fill="none" xmlns="http://www.w3.org/2000/svg">
<path d="M41.4615 48.9999C40.9717 48.9999 40.5544 48.8275 40.2096 48.4826C39.8647 48.1377 39.6923 47.7204 39.6923 47.2307V32.023C39.6923 31.5333 39.8647 31.116 40.2096 30.7711C40.5544 30.4262 40.9717 30.2538 41.4615 30.2538H49.2307C49.7204 30.2538 50.1377 30.4262 50.4826 30.7711C50.8275 31.116 50.9999 31.5333 50.9999 32.023V47.2307C50.9999 47.7204 50.8275 48.1377 50.4826 48.4826C50.1377 48.8275 49.7204 48.9999 49.2307 48.9999H41.4615ZM41.4615 45.2307H49.2307V34.023H41.4615V45.2307ZM24.1538 48.9999V46H28.5V40.9999H16.6154C15.618 40.9999 14.7661 40.6467 14.0597 39.9403C13.3532 39.2339 13 38.3819 13 37.3845V18.6154C13 17.618 13.3532 16.766 14.0597 16.0596C14.7661 15.3532 15.618 15 16.6154 15H43.3845C44.3819 15 45.2339 15.3532 45.9403 16.0596C46.6467 16.766 46.9999 17.618 46.9999 18.6154V26.2538H44V18.6154C44 18.4359 43.9423 18.2885 43.8269 18.1731C43.7115 18.0577 43.564 18 43.3845 18H16.6154C16.4359 18 16.2885 18.0577 16.1731 18.1731C16.0577 18.2885 16 18.4359 16 18.6154V37.3845C16 37.564 16.0577 37.7115 16.1731 37.8269C16.2885 37.9423 16.4359 38 16.6154 38H35.6923V40.9999H31.4999V46H35.8461V48.9999H24.1538ZM25.8231 34.8845L30 31.6153L34.1769 34.8845L32.6307 29.6461L36.8268 26.2538H31.6461L30 21.2308L28.3538 26.2538H23.1731L27.3692 29.6461L25.8231 34.8845Z" fill="#4D4DFF"/>
</svg>
