<svg width="64" height="64" viewBox="0 0 64 64" fill="none" xmlns="http://www.w3.org/2000/svg">
<path d="M12.7693 29.423L22.0384 12.9808L31.3076 29.423H12.7693ZM22.0577 49.5192C19.9731 49.5192 18.1987 48.7871 16.7346 47.323C15.2705 45.8589 14.5385 44.0873 14.5385 42.0082C14.5385 39.8976 15.2705 38.1154 16.7346 36.6615C18.1987 35.2077 19.9731 34.4808 22.0577 34.4808C24.1423 34.4808 25.9166 35.2128 27.3807 36.6769C28.8448 38.141 29.5769 39.9154 29.5769 42C29.5769 44.0846 28.8448 45.8589 27.3807 47.323C25.9166 48.7871 24.1423 49.5192 22.0577 49.5192ZM22.0577 46.5192C23.3116 46.5192 24.3782 46.0795 25.2577 45.2C26.1372 44.3205 26.5769 43.2539 26.5769 42C26.5769 40.7461 26.1372 39.6794 25.2577 38.7999C24.3782 37.9205 23.3116 37.4807 22.0577 37.4807C20.8038 37.4807 19.7371 37.9205 18.8576 38.7999C17.9782 39.6794 17.5384 40.7461 17.5384 42C17.5384 43.2539 17.9782 44.3205 18.8576 45.2C19.7371 46.0795 20.8038 46.5192 22.0577 46.5192ZM17.8961 26.4231H26.2L22.0384 19.1345L17.8961 26.4231ZM34.5192 49.5192V34.4808H49.5576V49.5192H34.5192ZM37.5192 46.5192H46.5577V37.4807H37.5192V46.5192ZM42.0384 29.423C40.4718 28.1307 39.1109 26.9987 37.9558 26.0269C36.8007 25.0551 35.8462 24.1622 35.0924 23.3481C34.3385 22.534 33.7757 21.7475 33.4039 20.9885C33.0321 20.2295 32.8462 19.4269 32.8462 18.5808C32.8462 17.2346 33.3039 16.109 34.2193 15.2039C35.1347 14.2988 36.2859 13.8462 37.6731 13.8462C38.5216 13.8462 39.3152 14.0481 40.0537 14.452C40.7923 14.8558 41.4538 15.4372 42.0384 16.1962C42.6231 15.4501 43.291 14.8719 44.0423 14.4616C44.7936 14.0513 45.5872 13.8462 46.423 13.8462C47.7925 13.8462 48.9362 14.309 49.854 15.2346C50.7718 16.1602 51.2307 17.2949 51.2307 18.6385C51.2307 19.4718 51.0448 20.2648 50.673 21.0173C50.3012 21.7699 49.7384 22.55 48.9845 23.3577C48.2307 24.1654 47.2762 25.0551 46.1211 26.0269C44.966 26.9987 43.6051 28.1307 42.0384 29.423ZM42.0384 25.5C44.4 23.6026 46.0224 22.1667 46.9058 21.1923C47.7891 20.218 48.2308 19.3808 48.2308 18.6808C48.2308 18.1449 48.0673 17.7051 47.7404 17.3615C47.4135 17.0179 46.9884 16.8461 46.4653 16.8461C46.0834 16.8461 45.711 16.957 45.3481 17.1788C44.9852 17.4006 44.5064 17.809 43.9115 18.4038L42.0384 20.2153L40.1654 18.4038C39.5577 17.7961 39.0763 17.3846 38.7212 17.1692C38.3661 16.9538 37.9962 16.8461 37.6115 16.8461C37.0756 16.8461 36.6474 17.0083 36.3269 17.3327C36.0064 17.6571 35.8461 18.0936 35.8461 18.6423C35.8461 19.368 36.2878 20.218 37.1711 21.1923C38.0545 22.1667 39.6769 23.6026 42.0384 25.5Z" fill="#4D4DFF"/>
</svg>
