<svg width="229" height="89" viewBox="0 0 229 89" fill="none" xmlns="http://www.w3.org/2000/svg">
<path d="M167.883 2.67188H228.683V9.07188H189.515V42.0959H216.139L213.579 48.4959H189.515V85.9999H167.883V2.67188Z" fill="black"/>
<path d="M72.1113 45.2962C72.1113 36.7629 74.2447 29.0829 78.5113 22.2562C82.8633 15.4296 88.922 10.0536 96.6873 6.12823C104.538 2.2029 113.498 0.240234 123.567 0.240234C130.223 0.240234 135.898 1.09357 140.591 2.80023C145.37 4.42156 149.637 6.5549 153.391 9.20023L150.063 15.7282C146.65 12.9122 142.81 10.6936 138.543 9.07224C134.277 7.4509 129.754 6.64024 124.975 6.64024C119.77 6.64024 114.863 7.9629 110.255 10.6082C105.733 13.2536 102.063 17.3069 99.2473 22.7682C96.4313 28.1442 95.0233 34.8002 95.0233 42.7362C95.0233 51.5256 96.4313 58.8642 99.2473 64.7522C102.149 70.6402 105.946 74.9922 110.639 77.8082C115.333 80.6242 120.495 82.0322 126.127 82.0322C130.65 82.0322 135.301 81.0509 140.079 79.0882C144.858 77.0402 149.466 74.3096 153.903 70.8962L158.639 76.2722C146.607 84.4642 134.277 88.5602 121.647 88.5602C111.749 88.5602 103.087 86.8962 95.6633 83.5682C88.2393 80.2402 82.4367 75.3336 78.2553 68.8482C74.1593 62.3629 72.1113 54.5122 72.1113 45.2962Z" fill="black"/>
<path d="M0.632812 2.67188H61.6888V9.07188H22.2648V39.5359H47.8648L45.3048 45.9359H22.2648V79.5999H62.2008V85.9999H0.632812V2.67188Z" fill="black"/>
</svg>
