<?xml version="1.0" encoding="utf-8"?>
<svg version="1.1" width="170px" height="34.3px" xmlns="http://www.w3.org/2000/svg" xmlns:xlink="http://www.w3.org/1999/xlink" x="0px"
	 y="0px" viewBox="0 0 172.6 34.8" style="enable-background:new 0 0 172.6 34.8;" xml:space="preserve">
<style type="text/css">
	.st0{fill:#3E78FF;}
</style>
<g>
	<path class="st0" d="M4.3,26.6V6.1L0,7.1V3.5l6.3-2.8h2.9v25.9H4.3z"/>
	<path class="st0" d="M13.7,34.8V8.3h4.2l0.5,2.6c0.6-0.8,1.4-1.5,2.3-2.1c1-0.6,2.2-0.9,3.8-0.9c1.7,0,3.3,0.4,4.6,1.3
		c1.4,0.8,2.4,2,3.2,3.4c0.8,1.5,1.2,3.1,1.2,5c0,1.8-0.4,3.5-1.2,4.9c-0.8,1.4-1.9,2.6-3.2,3.4c-1.4,0.8-2.9,1.2-4.6,1.2
		c-1.4,0-2.6-0.3-3.6-0.8c-1-0.5-1.9-1.2-2.5-2.2v10.7H13.7z M23.6,22.9c1.5,0,2.8-0.5,3.7-1.5c1-1,1.5-2.3,1.5-3.9s-0.5-2.9-1.5-4
		c-1-1-2.2-1.6-3.7-1.6c-1.5,0-2.8,0.5-3.8,1.5s-1.5,2.3-1.5,3.9s0.5,2.9,1.5,3.9S22.1,22.9,23.6,22.9z"/>
	<path class="st0" d="M34.8,26.6l6.7-9.2l-6.7-9.2h5.1l4.7,6.5l4.6-6.5h5.1l-6.7,9.2l6.7,9.2h-5.1l-4.6-6.5l-4.7,6.5H34.8z"/>
	<path class="st0" d="M72.9,27.1c-1.6,0-3.1-0.3-4.3-0.8c-1.2-0.5-2.2-1.3-3-2.2s-1.2-2-1.3-3.3h4.8c0.1,0.7,0.5,1.3,1.2,1.8
		c0.7,0.5,1.5,0.8,2.5,0.8c1,0,1.8-0.2,2.3-0.6c0.5-0.4,0.7-0.9,0.7-1.4c0-0.8-0.3-1.3-1-1.6c-0.7-0.3-1.7-0.6-2.9-0.8
		c-0.8-0.2-1.6-0.4-2.4-0.6c-0.8-0.2-1.6-0.6-2.2-0.9c-0.7-0.4-1.2-0.9-1.6-1.5S65,14.5,65,13.6c0-1.6,0.6-3,1.9-4.1
		c1.3-1.1,3.1-1.7,5.5-1.7c2.2,0,3.9,0.5,5.2,1.5c1.3,1,2.1,2.4,2.3,4.2h-4.5c-0.3-1.4-1.3-2-3.1-2c-0.9,0-1.6,0.2-2.1,0.5
		c-0.5,0.3-0.7,0.8-0.7,1.3c0,0.5,0.4,1,1.1,1.3c0.7,0.3,1.7,0.6,2.8,0.9c1.3,0.3,2.5,0.6,3.5,1s1.9,0.9,2.6,1.6c0.6,0.7,1,1.7,1,3
		c0,1.1-0.3,2.2-0.9,3.1c-0.6,0.9-1.5,1.6-2.7,2.1C75.9,26.8,74.5,27.1,72.9,27.1z"/>
	<path class="st0" d="M92,26.6c-1.9,0-3.5-0.5-4.6-1.4c-1.2-0.9-1.7-2.6-1.7-5v-8h-3.1v-4h3.1l0.6-4.9h4.2v4.9h5v4h-5v8
		c0,0.9,0.2,1.5,0.6,1.8s1,0.5,2,0.5h2.3v4H92z"/>
	<path class="st0" d="M105.9,27.1c-2.3,0-4.1-0.7-5.3-2.1c-1.2-1.4-1.9-3.5-1.9-6.3V8.3h4.7v9.9c0,1.6,0.3,2.8,1,3.6s1.7,1.3,3,1.3
		c1.3,0,2.4-0.5,3.2-1.4s1.3-2.2,1.3-3.9V8.3h4.7v18.4h-4.2l-0.4-3.1c-0.6,1.1-1.4,1.9-2.5,2.6C108.6,26.8,107.3,27.1,105.9,27.1z"
		/>
	<path class="st0" d="M129.6,27.1c-1.7,0-3.3-0.4-4.6-1.3c-1.4-0.8-2.4-2-3.2-3.4c-0.8-1.5-1.2-3.1-1.2-5c0-1.9,0.4-3.5,1.2-4.9
		c0.8-1.4,1.9-2.6,3.2-3.4c1.4-0.8,2.9-1.2,4.6-1.2c1.4,0,2.6,0.3,3.6,0.8c1,0.5,1.9,1.2,2.5,2.2V0h4.7v26.6h-4.2l-0.5-2.6
		c-0.6,0.8-1.4,1.5-2.3,2.1C132.4,26.8,131.1,27.1,129.6,27.1z M130.6,22.9c1.5,0,2.8-0.5,3.8-1.5c1-1,1.5-2.3,1.5-3.9
		s-0.5-2.9-1.5-3.9c-1-1-2.2-1.5-3.8-1.5c-1.5,0-2.8,0.5-3.7,1.5s-1.5,2.3-1.5,3.9s0.5,2.9,1.5,4S129.1,22.9,130.6,22.9z"/>
	<path class="st0" d="M147.4,5.4c-0.9,0-1.6-0.3-2.1-0.8c-0.6-0.5-0.8-1.2-0.8-2c0-0.8,0.3-1.4,0.8-1.9c0.6-0.5,1.3-0.8,2.1-0.8
		s1.6,0.3,2.1,0.8c0.6,0.5,0.8,1.2,0.8,1.9c0,0.8-0.3,1.4-0.8,2C149,5.2,148.3,5.4,147.4,5.4z M145.1,26.6V8.3h4.7v18.4H145.1z"/>
	<path class="st0" d="M163.2,27.1c-1.8,0-3.4-0.4-4.8-1.2c-1.4-0.8-2.5-1.9-3.4-3.4c-0.8-1.4-1.2-3.1-1.2-5s0.4-3.6,1.3-5
		c0.8-1.4,2-2.6,3.4-3.4c1.4-0.8,3-1.2,4.8-1.2c1.8,0,3.3,0.4,4.8,1.2c1.4,0.8,2.5,1.9,3.4,3.4s1.2,3.1,1.2,5s-0.4,3.6-1.2,5
		c-0.8,1.4-2,2.6-3.4,3.4C166.5,26.7,165,27.1,163.2,27.1z M163.2,23c1.2,0,2.3-0.5,3.2-1.4s1.4-2.3,1.4-4.1s-0.5-3.2-1.4-4.1
		s-2-1.4-3.2-1.4c-1.3,0-2.3,0.5-3.2,1.4c-0.9,0.9-1.4,2.3-1.4,4.1s0.4,3.2,1.4,4.1C160.9,22.5,162,23,163.2,23z"/>
</g>
</svg>
